<svg id="Layer_1" data-name="Layer 1" xmlns="http://www.w3.org/2000/svg" viewBox="0 0 1917.45 1082.88"><defs><style>.cls-1{fill:#a0d3f0;}.cls-2{fill:#8dc6db;}.cls-3{fill:#c3cfdd;}.cls-4{fill:#ff8f01;}.cls-5{fill:#ffde38;}.cls-6{fill:#ffc400;}.cls-7{fill:#0e1827;}.cls-8{fill:#ff6100;}.cls-9{fill:#fb0;}.cls-10{fill:#e64600;}.cls-11{fill:#def3ff;}.cls-12{fill:#ff3436;}.cls-13{fill:#ff8a00;}.cls-14{fill:#001e7f;}.cls-15{fill:#003dcb;}.cls-16{fill:#002da7;}.cls-17{fill:#61a1f0;}.cls-18{fill:#592bc2;}.cls-19{fill:#012eb7;}.cls-20{fill:#0058f4;}.cls-21{fill:#6844d8;}.cls-22{fill:#cd206b;}.cls-23{fill:#ff65a7;}.cls-24{fill:#ffa900;}.cls-25{fill:#ff9a00;}.cls-26{fill:#ff6700;}.cls-27{fill:#0088ce;}.cls-28{fill:#00b1fb;}.cls-29{fill:#0051cc;}.cls-30{fill:#003663;}.cls-31{fill:#0e1723;}.cls-32{fill:#070c14;}.cls-33{fill:#011c40;}.cls-34{fill:#d9f4ff;}.cls-35{fill:#f3ffff;}.cls-36{font-size:84.73px;fill:#90c3dc;letter-spacing:-0.1em;}.cls-36,.cls-48,.cls-50,.cls-51,.cls-52,.cls-54,.cls-55{font-family:JosefinSans-Bold, Josefin Sans;font-weight:700;}.cls-37{fill:#cf1d00;}.cls-38{fill:#ff2831;}.cls-39{fill:#e1211b;}.cls-40{fill:#447fca;}.cls-41{fill:#60a7e4;}.cls-42{fill:#8ccdf5;}.cls-43{fill:#9bf;}.cls-44{fill:#bfdcff;}.cls-45{fill:#dbedff;}.cls-46{fill:#5038b2;}.cls-47{fill:#6641d8;}.cls-48{font-size:24.62px;}.cls-48,.cls-50,.cls-51,.cls-52,.cls-53,.cls-54,.cls-55{fill:#fff;}.cls-49{letter-spacing:-0.05em;}.cls-50{font-size:30.87px;}.cls-51{font-size:22.1px;}.cls-52,.cls-54,.cls-55{font-size:38.82px;}.cls-54{letter-spacing:0.02em;}.cls-55{letter-spacing:0.02em;}</style></defs><title>draft2 - basic calculator</title><rect class="cls-1" width="1917.45" height="1082.88"/><path class="cls-2" d="M2.55,628S289,417,799.23,633.33,1565.39,813.9,1920,724.65v358.23H2.55Z" transform="translate(-2.55)"/><ellipse class="cls-3" cx="885.23" cy="334.13" rx="31.61" ry="18.25" transform="translate(-4.64 5.58) rotate(-0.36)"/><path class="cls-4" d="M884.76,339.07c-16.56,0-30-7.82-30-17.46V330h0c0,.08,0,.16,0,.24,0,9.64,13.43,17.46,30,17.46s30-7.82,30-17.46c0-.08,0-.16,0-.24h0v-8.34C914.75,331.25,901.32,339.07,884.76,339.07Z" transform="translate(-2.55)"/><path class="cls-5" d="M884.76,304.14c-16.49,0-29.87,7.76-30,17.34,0,0,0,.08,0,.13,0,9.64,13.43,17.46,30,17.46s30-7.82,30-17.46v-.13C914.63,311.9,901.25,304.14,884.76,304.14Z" transform="translate(-2.55)"/><ellipse class="cls-6" cx="882.21" cy="321.61" rx="22.42" ry="13.05"/><path class="cls-4" d="M884.76,310c12,0,21.73,5.47,22.36,12.36,0-.24.06-.47.06-.7,0-7.21-10-13.06-22.42-13.06s-22.42,5.85-22.42,13.06c0,.23,0,.46.06.7C863,315.42,872.79,310,884.76,310Z" transform="translate(-2.55)"/><path class="cls-5" d="M886.49,317.51c-.56.1-1.13.23-1.73.39s-1.07.29-1.65.49-1.16.4-1.69.63l1.8,1,.59-.21.66-.23c1-.36,2-.66,2.89-.9a15.18,15.18,0,0,1,2.55-.49,7.79,7.79,0,0,1,2.27.06,6.3,6.3,0,0,1,2.08.76,3.26,3.26,0,0,1,1.49,1.46,2,2,0,0,1,0,1.57,4.45,4.45,0,0,1-1.12,1.58,12.5,12.5,0,0,1-1.91,1.48l2.42,1.4-2,1.16-2.47-1.42a33.75,33.75,0,0,1-4,1.68,31.26,31.26,0,0,1-4.14,1.16l-1.3-3.19c.68-.14,1.37-.29,2.1-.48s1.28-.34,2-.58a16.68,16.68,0,0,0,2.12-.83l-1.76-1c-.62.24-1.27.46-1.94.68q-1.5.5-2.73.78a13.44,13.44,0,0,1-2.25.33,7.18,7.18,0,0,1-1.89-.15,5.88,5.88,0,0,1-1.64-.64,3.55,3.55,0,0,1-1.46-1.37,2.23,2.23,0,0,1-.2-1.54,3.89,3.89,0,0,1,.87-1.61,8.81,8.81,0,0,1,1.76-1.55l-2-1.17,2-1.16,2,1.18c.61-.29,1.22-.55,1.85-.79s1.25-.46,1.87-.65,1.21-.37,1.78-.53l1.59-.42Zm-6.77,3.21a1.25,1.25,0,0,0,.74.14,5.47,5.47,0,0,0,1.11-.24l-1.52-.87C879.44,320.17,879.34,320.5,879.72,320.72Zm9.63,1.61a1.27,1.27,0,0,0-.79-.11,6.44,6.44,0,0,0-1.18.25l1.48.85a1.63,1.63,0,0,0,.66-.61C889.58,322.56,889.52,322.43,889.35,322.33Z" transform="translate(-2.55)"/><path class="cls-4" d="M886.49,316.76c-.56.1-1.13.24-1.73.4s-1.07.29-1.65.48a16,16,0,0,0-1.69.64l1.8,1c.18-.07.37-.15.59-.22s.43-.14.66-.23c1-.35,2-.66,2.89-.9a16.26,16.26,0,0,1,2.55-.49,8.55,8.55,0,0,1,2.27.06,6.33,6.33,0,0,1,2.08.77,3.22,3.22,0,0,1,1.49,1.46,2,2,0,0,1,0,1.57,4.42,4.42,0,0,1-1.12,1.57,12.53,12.53,0,0,1-1.91,1.49l2.42,1.39-2,1.17-2.47-1.43a30.69,30.69,0,0,1-4,1.68,33,33,0,0,1-4.14,1.17l-1.3-3.2c.68-.13,1.37-.29,2.1-.48s1.28-.34,2-.58a18.31,18.31,0,0,0,2.12-.82l-1.76-1c-.62.24-1.27.47-1.94.68q-1.5.5-2.73.78a12.48,12.48,0,0,1-2.25.33,7.18,7.18,0,0,1-1.89-.15,5.88,5.88,0,0,1-1.64-.64,3.55,3.55,0,0,1-1.46-1.37,2.2,2.2,0,0,1-.2-1.53,3.77,3.77,0,0,1,.87-1.61,8.83,8.83,0,0,1,1.76-1.56l-2-1.16,2-1.17,2,1.18c.61-.29,1.22-.55,1.85-.79s1.25-.45,1.87-.65,1.21-.37,1.78-.52l1.59-.42ZM879.72,320a1.25,1.25,0,0,0,.74.14,5.36,5.36,0,0,0,1.11-.23l-1.52-.88C879.44,319.43,879.34,319.75,879.72,320Zm9.63,1.61a1.27,1.27,0,0,0-.79-.11,7.4,7.4,0,0,0-1.18.25l1.48.86a1.7,1.7,0,0,0,.66-.61A.3.3,0,0,0,889.35,321.58Z" transform="translate(-2.55)"/><path class="cls-4" d="M884.74,327.15c-16.56,0-30-7.82-30-17.46V318h0c0,.08,0,.16,0,.24,0,9.65,13.43,17.46,30,17.46s30-7.81,30-17.46a1.93,1.93,0,0,0,0-.24h0v-8.34C914.72,319.33,901.3,327.15,884.74,327.15Z" transform="translate(-2.55)"/><path class="cls-5" d="M884.74,292.23c-16.5,0-29.88,7.75-30,17.34v.12c0,9.64,13.43,17.46,30,17.46s30-7.82,30-17.46v-.12C914.61,300,901.23,292.23,884.74,292.23Z" transform="translate(-2.55)"/><ellipse class="cls-6" cx="882.19" cy="309.69" rx="22.42" ry="13.05"/><path class="cls-4" d="M884.74,298c12,0,21.72,5.47,22.35,12.35,0-.23.06-.46.06-.7,0-7.21-10-13.05-22.41-13.05s-22.42,5.84-22.42,13.05c0,.24,0,.47.06.7C863,303.51,872.76,298,884.74,298Z" transform="translate(-2.55)"/><path class="cls-5" d="M886.47,305.59c-.56.11-1.13.24-1.73.4s-1.07.29-1.66.48-1.15.41-1.69.64l1.81,1,.58-.21.66-.23c1-.36,2-.66,2.89-.91a16.26,16.26,0,0,1,2.55-.49,8.62,8.62,0,0,1,2.28.06,6.27,6.27,0,0,1,2.07.77,3.24,3.24,0,0,1,1.5,1.46,2,2,0,0,1,0,1.57,4.55,4.55,0,0,1-1.12,1.57,13,13,0,0,1-1.91,1.49l2.42,1.4-2,1.16-2.46-1.42a34.58,34.58,0,0,1-8.12,2.84l-1.31-3.2c.68-.13,1.38-.29,2.1-.47s1.29-.35,2-.59a19,19,0,0,0,2.12-.82l-1.76-1c-.63.24-1.27.47-1.94.68a25.68,25.68,0,0,1-2.73.78,12.48,12.48,0,0,1-2.25.33,7.19,7.19,0,0,1-1.89-.14,5.85,5.85,0,0,1-1.65-.65,3.56,3.56,0,0,1-1.45-1.36,2.18,2.18,0,0,1-.2-1.54,3.91,3.91,0,0,1,.86-1.61,8.85,8.85,0,0,1,1.77-1.55l-2-1.17,2-1.16,2,1.18c.61-.29,1.23-.56,1.86-.8s1.25-.45,1.86-.65,1.22-.37,1.79-.52l1.59-.42Zm-6.77,3.21a1.18,1.18,0,0,0,.74.14,5.49,5.49,0,0,0,1.11-.23l-1.52-.88C879.42,308.26,879.31,308.58,879.7,308.8Zm9.63,1.61a1.34,1.34,0,0,0-.79-.11,7,7,0,0,0-1.18.25l1.48.86a1.7,1.7,0,0,0,.66-.61A.3.3,0,0,0,889.33,310.41Z" transform="translate(-2.55)"/><path class="cls-4" d="M886.47,304.84c-.56.11-1.13.24-1.73.4s-1.07.29-1.66.48-1.15.41-1.69.64l1.81,1,.58-.21.66-.23c1-.36,2-.66,2.89-.91a17.5,17.5,0,0,1,2.55-.49,8.2,8.2,0,0,1,2.28.07,6.25,6.25,0,0,1,2.07.76,3.29,3.29,0,0,1,1.5,1.46,2,2,0,0,1,0,1.57,4.58,4.58,0,0,1-1.12,1.58,13,13,0,0,1-1.91,1.48l2.42,1.4-2,1.16-2.46-1.42a34.64,34.64,0,0,1-4,1.68,32.74,32.74,0,0,1-4.13,1.16l-1.31-3.2c.68-.13,1.38-.29,2.1-.47s1.29-.35,2-.59a17.26,17.26,0,0,0,2.12-.82l-1.76-1c-.63.23-1.27.46-1.94.68q-1.5.49-2.73.78a13.35,13.35,0,0,1-2.25.32,6.79,6.79,0,0,1-1.89-.14,5.85,5.85,0,0,1-1.65-.65A3.5,3.5,0,0,1,873.8,310a2.18,2.18,0,0,1-.2-1.54,3.91,3.91,0,0,1,.86-1.61,8.85,8.85,0,0,1,1.77-1.55l-2-1.17,2-1.16,2,1.18c.61-.29,1.23-.55,1.86-.79s1.25-.46,1.86-.65,1.22-.37,1.79-.53l1.59-.42Zm-6.77,3.22a1.33,1.33,0,0,0,.74.14,6.44,6.44,0,0,0,1.11-.24l-1.52-.88C879.42,307.51,879.31,307.83,879.7,308.06Zm9.63,1.6a1.43,1.43,0,0,0-.79-.11,6.2,6.2,0,0,0-1.18.26l1.48.85a1.7,1.7,0,0,0,.66-.61A.3.3,0,0,0,889.33,309.66Z" transform="translate(-2.55)"/><path class="cls-4" d="M884.69,315c-16.56,0-30-7.82-30-17.46v8.34h0c0,.08,0,.16,0,.24,0,9.64,13.43,17.46,30,17.46s30-7.82,30-17.46c0-.08,0-.16,0-.24h0v-8.34C914.68,307.19,901.25,315,884.69,315Z" transform="translate(-2.55)"/><path class="cls-5" d="M884.69,280.09c-16.49,0-29.87,7.75-30,17.34a.49.49,0,0,0,0,.12c0,9.64,13.43,17.46,30,17.46s30-7.82,30-17.46a.49.49,0,0,0,0-.12C914.56,287.84,901.18,280.09,884.69,280.09Z" transform="translate(-2.55)"/><ellipse class="cls-6" cx="882.14" cy="297.55" rx="22.42" ry="13.05"/><path class="cls-4" d="M884.69,285.89c12,0,21.73,5.48,22.36,12.36,0-.24.06-.47.06-.7,0-7.21-10-13.06-22.42-13.06s-22.42,5.85-22.42,13.06c0,.23,0,.46.06.7C863,291.37,872.72,285.89,884.69,285.89Z" transform="translate(-2.55)"/><path class="cls-5" d="M886.42,293.45c-.56.1-1.13.24-1.73.4a17.17,17.17,0,0,0-1.65.48,16,16,0,0,0-1.69.64l1.8,1c.18-.07.37-.15.59-.22l.66-.23c1-.35,2-.66,2.89-.9a16.26,16.26,0,0,1,2.55-.49,8.55,8.55,0,0,1,2.27.06,6.33,6.33,0,0,1,2.08.77,3.22,3.22,0,0,1,1.49,1.46,2,2,0,0,1,0,1.57,4.42,4.42,0,0,1-1.12,1.57,11.9,11.9,0,0,1-1.91,1.48l2.42,1.4-2,1.17-2.47-1.43a30.69,30.69,0,0,1-4,1.68,31.26,31.26,0,0,1-4.14,1.16l-1.31-3.19c.68-.13,1.38-.29,2.11-.48s1.28-.34,2-.58a18.31,18.31,0,0,0,2.12-.82l-1.76-1c-.62.24-1.27.47-1.94.68q-1.5.5-2.73.78a12.48,12.48,0,0,1-2.25.33,7.18,7.18,0,0,1-1.89-.15,5.88,5.88,0,0,1-1.64-.64,3.55,3.55,0,0,1-1.46-1.37,2.22,2.22,0,0,1-.2-1.54,3.8,3.8,0,0,1,.87-1.6,8.83,8.83,0,0,1,1.76-1.56l-2-1.16,2-1.17,2,1.18c.6-.29,1.22-.55,1.85-.79s1.25-.45,1.87-.65,1.21-.37,1.78-.52l1.59-.42Zm-6.77,3.21a1.25,1.25,0,0,0,.74.14,5.36,5.36,0,0,0,1.11-.23l-1.52-.88C879.37,296.11,879.27,296.44,879.65,296.66Zm9.63,1.61a1.27,1.27,0,0,0-.79-.11,6.27,6.27,0,0,0-1.18.25l1.48.86a1.78,1.78,0,0,0,.66-.61A.3.3,0,0,0,889.28,298.27Z" transform="translate(-2.55)"/><path class="cls-4" d="M886.42,292.7c-.56.11-1.13.24-1.73.4s-1.07.29-1.65.48-1.16.41-1.69.64l1.8,1,.59-.21.66-.23c1-.36,2-.66,2.89-.91a16.26,16.26,0,0,1,2.55-.49,8.55,8.55,0,0,1,2.27.06,6.33,6.33,0,0,1,2.08.77,3.22,3.22,0,0,1,1.49,1.46,2,2,0,0,1,0,1.57,4.42,4.42,0,0,1-1.12,1.57,12.53,12.53,0,0,1-1.91,1.49l2.42,1.4-2,1.16-2.47-1.42a33.75,33.75,0,0,1-4,1.68,34.64,34.64,0,0,1-4.14,1.16l-1.31-3.2c.68-.13,1.38-.29,2.11-.47s1.28-.35,2-.59a18.31,18.31,0,0,0,2.12-.82l-1.76-1c-.62.24-1.27.47-1.94.68a25.68,25.68,0,0,1-2.73.78,12.48,12.48,0,0,1-2.25.33,7.19,7.19,0,0,1-1.89-.14,5.91,5.91,0,0,1-1.64-.65,3.53,3.53,0,0,1-1.46-1.36,2.24,2.24,0,0,1-.2-1.54,3.83,3.83,0,0,1,.87-1.61,8.5,8.5,0,0,1,1.76-1.55l-2-1.17,2-1.16,2,1.18c.6-.29,1.22-.56,1.85-.8s1.25-.45,1.87-.65,1.21-.37,1.78-.52l1.59-.42Zm-6.77,3.22a1.25,1.25,0,0,0,.74.13,5.36,5.36,0,0,0,1.11-.23l-1.52-.88C879.37,295.37,879.27,295.69,879.65,295.92Zm9.63,1.6a1.34,1.34,0,0,0-.79-.11,7.18,7.18,0,0,0-1.18.25l1.48.86a1.7,1.7,0,0,0,.66-.61A.3.3,0,0,0,889.28,297.52Z" transform="translate(-2.55)"/><ellipse class="cls-7" cx="893.17" cy="368.38" rx="31.61" ry="18.25" transform="translate(-4.85 5.63) rotate(-0.36)"/><path class="cls-4" d="M892.71,373.31c-16.57,0-30-7.81-30-17.46v8.34h0c0,.08,0,.16,0,.24,0,9.65,13.42,17.47,30,17.47s30-7.82,30-17.47c0-.08,0-.16,0-.24h0v-8.34C922.69,365.5,909.27,373.31,892.71,373.31Z" transform="translate(-2.55)"/><path class="cls-5" d="M892.71,338.39c-16.5,0-29.88,7.75-30,17.34v.12c0,9.65,13.42,17.46,30,17.46s30-7.81,30-17.46v-.12C922.58,346.14,909.2,338.39,892.71,338.39Z" transform="translate(-2.55)"/><ellipse class="cls-6" cx="890.15" cy="355.85" rx="22.42" ry="13.05"/><path class="cls-4" d="M892.71,344.2c12,0,21.72,5.47,22.35,12.35,0-.23.06-.46.06-.7,0-7.21-10-13.05-22.41-13.05s-22.42,5.84-22.42,13.05c0,.24,0,.47.06.7C871,349.67,880.73,344.2,892.71,344.2Z" transform="translate(-2.55)"/><path class="cls-5" d="M894.44,351.75c-.56.11-1.14.24-1.73.4s-1.07.29-1.66.48-1.15.41-1.69.64l1.8,1,.59-.21.66-.23c1-.36,2-.66,2.89-.91a17.5,17.5,0,0,1,2.55-.49,8.13,8.13,0,0,1,2.27.07,6.22,6.22,0,0,1,2.08.76,3.29,3.29,0,0,1,1.5,1.46,2,2,0,0,1,0,1.57,4.46,4.46,0,0,1-1.13,1.57,11.5,11.5,0,0,1-1.91,1.49l2.43,1.4-2,1.16-2.46-1.42a34.64,34.64,0,0,1-4,1.68,32.74,32.74,0,0,1-4.13,1.16l-1.31-3.2c.68-.13,1.38-.29,2.1-.47s1.29-.35,2-.59a16.81,16.81,0,0,0,2.13-.82l-1.76-1c-.63.24-1.28.47-1.94.69-1,.33-1.92.59-2.73.77a12.48,12.48,0,0,1-2.25.33,6.73,6.73,0,0,1-1.89-.14,5.85,5.85,0,0,1-1.65-.65,3.6,3.6,0,0,1-1.46-1.36,2.23,2.23,0,0,1-.19-1.54,3.8,3.8,0,0,1,.86-1.61,8.85,8.85,0,0,1,1.77-1.55l-2-1.17,2-1.16,2,1.18c.61-.29,1.23-.56,1.85-.79s1.25-.46,1.87-.66,1.22-.37,1.79-.52l1.59-.42ZM887.67,355a1.24,1.24,0,0,0,.74.13,5.41,5.41,0,0,0,1.1-.23L888,354C887.39,354.42,887.28,354.74,887.67,355Zm9.63,1.6a1.36,1.36,0,0,0-.8-.11,6.29,6.29,0,0,0-1.17.26l1.48.85a1.73,1.73,0,0,0,.65-.61C897.53,356.8,897.47,356.67,897.3,356.57Z" transform="translate(-2.55)"/><path class="cls-4" d="M894.44,351c-.56.1-1.14.23-1.73.39s-1.07.29-1.66.49-1.15.4-1.69.63l1.8,1,.59-.21c.22-.07.44-.14.66-.23,1-.36,2-.66,2.89-.9a15.18,15.18,0,0,1,2.55-.49,7.78,7.78,0,0,1,2.27.06,6.22,6.22,0,0,1,2.08.76,3.29,3.29,0,0,1,1.5,1.46,2,2,0,0,1,0,1.57,4.48,4.48,0,0,1-1.13,1.58,12,12,0,0,1-1.91,1.48l2.43,1.4-2,1.16-2.46-1.42a34.64,34.64,0,0,1-4,1.68,31.14,31.14,0,0,1-4.13,1.16l-1.31-3.2c.68-.13,1.38-.28,2.1-.47s1.29-.35,2-.58a18.49,18.49,0,0,0,2.13-.83l-1.76-1c-.63.24-1.28.46-1.94.68q-1.51.5-2.73.78a14.57,14.57,0,0,1-2.25.33,7.11,7.11,0,0,1-1.89-.15,5.83,5.83,0,0,1-1.65-.64,3.68,3.68,0,0,1-1.46-1.37,2.23,2.23,0,0,1-.19-1.54,3.8,3.8,0,0,1,.86-1.61,9.17,9.17,0,0,1,1.77-1.55l-2-1.17,2-1.16,2,1.18c.61-.29,1.23-.55,1.85-.79s1.25-.46,1.87-.65,1.22-.37,1.79-.53l1.59-.42Zm-6.77,3.21a1.23,1.23,0,0,0,.74.14,5.54,5.54,0,0,0,1.1-.24l-1.52-.87C887.39,353.67,887.28,354,887.67,354.22Zm9.63,1.61a1.29,1.29,0,0,0-.8-.11,6.19,6.19,0,0,0-1.17.25l1.48.85a1.66,1.66,0,0,0,.65-.61C897.53,356.05,897.47,355.93,897.3,355.83Z" transform="translate(-2.55)"/><path class="cls-4" d="M892.68,361.4c-16.56,0-30-7.82-30-17.46v8.34h0c0,.08,0,.16,0,.24,0,9.64,13.43,17.46,30,17.46s30-7.82,30-17.46c0-.08,0-.16,0-.24h0v-8.34C922.67,353.58,909.24,361.4,892.68,361.4Z" transform="translate(-2.55)"/><path class="cls-5" d="M892.68,326.47c-16.49,0-29.87,7.76-30,17.35,0,0,0,.08,0,.12,0,9.64,13.43,17.46,30,17.46s30-7.82,30-17.46v-.12C922.56,334.23,909.17,326.47,892.68,326.47Z" transform="translate(-2.55)"/><ellipse class="cls-6" cx="890.13" cy="343.94" rx="22.42" ry="13.05"/><path class="cls-4" d="M892.68,332.28c12,0,21.73,5.48,22.36,12.36,0-.24.06-.47.06-.7,0-7.21-10-13.06-22.42-13.06s-22.41,5.85-22.41,13.06a5.67,5.67,0,0,0,.06.7C871,337.76,880.71,332.28,892.68,332.28Z" transform="translate(-2.55)"/><path class="cls-5" d="M894.41,339.84c-.55.1-1.13.24-1.73.39s-1.06.29-1.65.49a16.9,16.9,0,0,0-1.69.64l1.8,1c.18-.08.38-.15.59-.22l.66-.23c1-.36,2-.66,2.89-.9a15.18,15.18,0,0,1,2.55-.49,8.55,8.55,0,0,1,2.27.06,6.33,6.33,0,0,1,2.08.77,3.25,3.25,0,0,1,1.49,1.45,2.11,2.11,0,0,1,0,1.58,4.68,4.68,0,0,1-1.13,1.57,11.9,11.9,0,0,1-1.91,1.48l2.42,1.4-2,1.17-2.46-1.43a31.44,31.44,0,0,1-4,1.68,30.85,30.85,0,0,1-4.14,1.16l-1.3-3.19q1-.19,2.1-.48c.61-.15,1.29-.34,2-.58a18.47,18.47,0,0,0,2.13-.82l-1.77-1c-.62.24-1.27.47-1.94.68q-1.5.49-2.73.78a12.23,12.23,0,0,1-2.25.33,7.18,7.18,0,0,1-1.89-.15,5.88,5.88,0,0,1-1.64-.64,3.55,3.55,0,0,1-1.46-1.37,2.22,2.22,0,0,1-.2-1.54,3.8,3.8,0,0,1,.87-1.6,8.53,8.53,0,0,1,1.76-1.56l-2-1.16,2-1.17,2,1.18c.61-.29,1.22-.55,1.85-.79s1.25-.46,1.87-.65,1.21-.37,1.79-.52l1.58-.42Zm-6.77,3.21a1.27,1.27,0,0,0,.75.14,5.41,5.41,0,0,0,1.1-.23l-1.52-.88C887.37,342.5,887.26,342.83,887.64,343.05Zm9.63,1.61a1.26,1.26,0,0,0-.79-.11,6.44,6.44,0,0,0-1.18.25l1.49.86a1.82,1.82,0,0,0,.65-.61A.29.29,0,0,0,897.27,344.66Z" transform="translate(-2.55)"/><path class="cls-4" d="M894.41,339.09c-.55.11-1.13.24-1.73.4s-1.06.29-1.65.48-1.15.41-1.69.64l1.8,1,.59-.21.66-.23c1-.36,2-.66,2.89-.91a16.26,16.26,0,0,1,2.55-.49,8.55,8.55,0,0,1,2.27.06,6.33,6.33,0,0,1,2.08.77,3.22,3.22,0,0,1,1.49,1.46,2.08,2.08,0,0,1,0,1.57,4.59,4.59,0,0,1-1.13,1.57,12.53,12.53,0,0,1-1.91,1.49l2.42,1.4-2,1.16-2.46-1.42a34.64,34.64,0,0,1-4,1.68,34.13,34.13,0,0,1-4.14,1.16l-1.3-3.2c.68-.13,1.38-.29,2.1-.47s1.29-.35,2-.59a18.47,18.47,0,0,0,2.13-.82l-1.77-1c-.62.24-1.27.47-1.94.68a25.68,25.68,0,0,1-2.73.78,12.23,12.23,0,0,1-2.25.33,7.65,7.65,0,0,1-1.89-.14,5.91,5.91,0,0,1-1.64-.65,3.6,3.6,0,0,1-1.46-1.36,2.24,2.24,0,0,1-.2-1.54,3.83,3.83,0,0,1,.87-1.61,8.5,8.5,0,0,1,1.76-1.55l-2-1.17,2-1.16,2,1.17c.61-.28,1.22-.55,1.85-.79s1.25-.45,1.87-.65,1.21-.37,1.79-.52l1.58-.42Zm-6.77,3.21a1.2,1.2,0,0,0,.75.14,5.41,5.41,0,0,0,1.1-.23l-1.52-.88C887.37,341.76,887.26,342.08,887.64,342.3Zm9.63,1.61a1.33,1.33,0,0,0-.79-.11,7.4,7.4,0,0,0-1.18.25l1.49.86a1.73,1.73,0,0,0,.65-.61A.29.29,0,0,0,897.27,343.91Z" transform="translate(-2.55)"/><ellipse class="cls-7" cx="830.53" cy="349.08" rx="31.61" ry="18.25" transform="translate(-4.73 5.23) rotate(-0.36)"/><path class="cls-4" d="M830.06,354c-16.56,0-30-7.82-30-17.47v8.34h0c0,.08,0,.16,0,.24,0,9.65,13.42,17.47,30,17.47s30-7.82,30-17.47c0-.08,0-.16,0-.24h0v-8.34C860.05,346.2,846.63,354,830.06,354Z" transform="translate(-2.55)"/><path class="cls-5" d="M830.06,319.09c-16.49,0-29.87,7.75-30,17.34v.12c0,9.65,13.42,17.47,30,17.47s30-7.82,30-17.47v-.12C859.94,326.84,846.56,319.09,830.06,319.09Z" transform="translate(-2.55)"/><ellipse class="cls-6" cx="827.51" cy="336.55" rx="22.42" ry="13.05"/><path class="cls-4" d="M830.06,324.9c12,0,21.73,5.47,22.36,12.35,0-.23.06-.46.06-.7,0-7.21-10-13.05-22.42-13.05s-22.41,5.84-22.41,13.05c0,.24,0,.47.06.7C808.34,330.37,818.09,324.9,830.06,324.9Z" transform="translate(-2.55)"/><path class="cls-5" d="M831.79,332.45c-.55.11-1.13.24-1.72.4s-1.07.29-1.66.48-1.15.41-1.69.64l1.8,1,.59-.21.66-.23c1-.36,2-.66,2.89-.91a17.5,17.5,0,0,1,2.55-.49,8.13,8.13,0,0,1,2.27.07,6.3,6.3,0,0,1,2.08.76,3.29,3.29,0,0,1,1.5,1.46,2,2,0,0,1,0,1.57,4.71,4.71,0,0,1-1.13,1.58,12.5,12.5,0,0,1-1.91,1.48l2.42,1.4-2,1.16L836,341.23a34.64,34.64,0,0,1-4,1.68,32.74,32.74,0,0,1-4.13,1.16l-1.31-3.2c.68-.13,1.38-.29,2.1-.47s1.29-.35,2-.59a16.81,16.81,0,0,0,2.13-.82L831,338c-.63.23-1.28.46-1.94.68q-1.51.49-2.73.78a13.35,13.35,0,0,1-2.25.32,6.73,6.73,0,0,1-1.89-.14,5.85,5.85,0,0,1-1.65-.65,3.53,3.53,0,0,1-1.46-1.36,2.23,2.23,0,0,1-.19-1.54,3.69,3.69,0,0,1,.86-1.61,8.85,8.85,0,0,1,1.77-1.55l-2-1.17,2-1.16,2,1.18c.61-.29,1.23-.55,1.85-.79s1.25-.46,1.87-.65,1.22-.37,1.79-.53l1.59-.42ZM825,335.67a1.31,1.31,0,0,0,.74.14,6.36,6.36,0,0,0,1.1-.24l-1.52-.88C824.75,335.12,824.64,335.44,825,335.67Zm9.62,1.6a1.41,1.41,0,0,0-.79-.11,6.29,6.29,0,0,0-1.17.26l1.48.85a1.73,1.73,0,0,0,.65-.61A.29.29,0,0,0,834.65,337.27Z" transform="translate(-2.55)"/><path class="cls-4" d="M831.79,331.71c-.55.1-1.13.23-1.72.39s-1.07.29-1.66.49-1.15.4-1.69.63l1.8,1,.59-.21c.22-.07.44-.14.66-.23,1-.36,2-.66,2.89-.9a15.18,15.18,0,0,1,2.55-.49,8.14,8.14,0,0,1,2.27.06,6.3,6.3,0,0,1,2.08.76,3.34,3.34,0,0,1,1.5,1.46,2,2,0,0,1,0,1.57,4.62,4.62,0,0,1-1.13,1.58,12.5,12.5,0,0,1-1.91,1.48l2.42,1.4-2,1.16L836,340.48a34.64,34.64,0,0,1-4,1.68,31.14,31.14,0,0,1-4.13,1.16l-1.31-3.19c.68-.14,1.38-.29,2.1-.48s1.29-.34,2-.58a16.83,16.83,0,0,0,2.13-.83l-1.76-1c-.63.24-1.28.46-1.94.68q-1.51.49-2.73.78a12.48,12.48,0,0,1-2.25.33,7.11,7.11,0,0,1-1.89-.15,5.83,5.83,0,0,1-1.65-.64,3.55,3.55,0,0,1-1.46-1.37,2.23,2.23,0,0,1-.19-1.54,3.75,3.75,0,0,1,.86-1.61,9.17,9.17,0,0,1,1.77-1.55l-2-1.17,2-1.16,2,1.18c.61-.29,1.23-.55,1.85-.79s1.25-.46,1.87-.65,1.22-.37,1.79-.53l1.59-.42ZM825,334.92a1.23,1.23,0,0,0,.74.14,5.54,5.54,0,0,0,1.1-.24l-1.52-.87C824.75,334.37,824.64,334.7,825,334.92Zm9.62,1.61a1.26,1.26,0,0,0-.79-.11,6.19,6.19,0,0,0-1.17.25l1.48.85a1.66,1.66,0,0,0,.65-.61C834.88,336.76,834.83,336.63,834.65,336.53Z" transform="translate(-2.55)"/><path class="cls-4" d="M830,342.1c-16.56,0-30-7.82-30-17.46V333h0c0,.08,0,.16,0,.24,0,9.64,13.43,17.46,30,17.46s30-7.82,30-17.46c0-.08,0-.16,0-.24h0v-8.34C860,334.28,846.6,342.1,830,342.1Z" transform="translate(-2.55)"/><path class="cls-5" d="M830,307.18c-16.49,0-29.87,7.75-30,17.34,0,0,0,.08,0,.12,0,9.64,13.43,17.46,30,17.46s30-7.82,30-17.46v-.12C859.91,314.93,846.53,307.18,830,307.18Z" transform="translate(-2.55)"/><ellipse class="cls-6" cx="827.49" cy="324.64" rx="22.42" ry="13.05"/><path class="cls-4" d="M830,313c12,0,21.73,5.48,22.36,12.36,0-.24.06-.47.06-.7,0-7.21-10-13.06-22.42-13.06s-22.42,5.85-22.42,13.06a5.72,5.72,0,0,0,.07.7C808.31,318.46,818.07,313,830,313Z" transform="translate(-2.55)"/><path class="cls-5" d="M831.77,320.54c-.55.1-1.13.24-1.73.4a17.17,17.17,0,0,0-1.65.48,16.9,16.9,0,0,0-1.69.64l1.8,1c.18-.07.37-.15.59-.22l.66-.23c1-.35,2-.66,2.89-.9a16.26,16.26,0,0,1,2.55-.49,8.55,8.55,0,0,1,2.27.06,6.33,6.33,0,0,1,2.08.77,3.22,3.22,0,0,1,1.49,1.46,2.08,2.08,0,0,1,0,1.57,4.59,4.59,0,0,1-1.13,1.57,11.9,11.9,0,0,1-1.91,1.48l2.42,1.4-2,1.17L836,329.31a34.45,34.45,0,0,1-8.13,2.84l-1.3-3.19q1-.19,2.1-.48c.61-.15,1.28-.34,2-.58a19.21,19.21,0,0,0,2.13-.82l-1.77-1c-.62.24-1.27.47-1.94.68q-1.5.5-2.73.78a12.48,12.48,0,0,1-2.25.33,7.18,7.18,0,0,1-1.89-.15,5.88,5.88,0,0,1-1.64-.64,3.55,3.55,0,0,1-1.46-1.37,2.22,2.22,0,0,1-.2-1.54,3.8,3.8,0,0,1,.87-1.6,8.83,8.83,0,0,1,1.76-1.56l-2-1.16,2-1.17,2,1.18c.61-.29,1.22-.55,1.85-.79s1.25-.45,1.87-.65,1.21-.37,1.79-.52l1.58-.42ZM825,323.75a1.27,1.27,0,0,0,.75.14,5.41,5.41,0,0,0,1.1-.23l-1.52-.88C824.72,323.2,824.62,323.53,825,323.75Zm9.63,1.61a1.27,1.27,0,0,0-.79-.11,6.44,6.44,0,0,0-1.18.25l1.48.86a1.78,1.78,0,0,0,.66-.61A.29.29,0,0,0,834.63,325.36Z" transform="translate(-2.55)"/><path class="cls-4" d="M831.77,319.79c-.55.11-1.13.24-1.73.4s-1.07.29-1.65.48-1.15.41-1.69.64l1.8,1,.59-.21.66-.23c1-.36,2-.66,2.89-.91a16.26,16.26,0,0,1,2.55-.49,8.55,8.55,0,0,1,2.27.06,6.33,6.33,0,0,1,2.08.77A3.22,3.22,0,0,1,841,322.8a2.08,2.08,0,0,1,0,1.57,4.59,4.59,0,0,1-1.13,1.57,12.53,12.53,0,0,1-1.91,1.49l2.42,1.4-2,1.16L836,328.57a34.45,34.45,0,0,1-8.13,2.84l-1.3-3.2c.68-.13,1.38-.29,2.1-.47s1.28-.35,2-.59a19.21,19.21,0,0,0,2.13-.82l-1.77-1c-.62.24-1.27.47-1.94.68a25.68,25.68,0,0,1-2.73.78,12.48,12.48,0,0,1-2.25.33,7.19,7.19,0,0,1-1.89-.14,5.91,5.91,0,0,1-1.64-.65A3.53,3.53,0,0,1,819.1,325a2.24,2.24,0,0,1-.2-1.54,3.83,3.83,0,0,1,.87-1.61,8.5,8.5,0,0,1,1.76-1.55l-2-1.17,2-1.16,2,1.18c.61-.29,1.22-.56,1.85-.8s1.25-.45,1.87-.65,1.21-.37,1.79-.52l1.58-.42ZM825,323a1.27,1.27,0,0,0,.75.13,5.41,5.41,0,0,0,1.1-.23l-1.52-.88C824.72,322.46,824.62,322.78,825,323Zm9.63,1.6a1.34,1.34,0,0,0-.79-.11,7.4,7.4,0,0,0-1.18.25l1.48.86a1.7,1.7,0,0,0,.66-.61A.29.29,0,0,0,834.63,324.61Z" transform="translate(-2.55)"/><path class="cls-4" d="M830,330c-16.56,0-30-7.82-30-17.46v8.34h0c0,.08,0,.16,0,.24,0,9.64,13.42,17.46,30,17.46s30-7.82,30-17.46c0-.08,0-.16,0-.24h0V312.5C860,322.14,846.56,330,830,330Z" transform="translate(-2.55)"/><path class="cls-5" d="M830,295c-16.49,0-29.87,7.76-30,17.34v.13c0,9.64,13.42,17.46,30,17.46s30-7.82,30-17.46v-.13C859.87,302.79,846.49,295,830,295Z" transform="translate(-2.55)"/><ellipse class="cls-6" cx="827.44" cy="312.5" rx="22.42" ry="13.05"/><path class="cls-4" d="M830,300.84c12,0,21.73,5.47,22.36,12.36,0-.24.06-.47.06-.71,0-7.2-10-13.05-22.42-13.05s-22.41,5.85-22.41,13.05c0,.24,0,.47.06.71C808.27,306.31,818,300.84,830,300.84Z" transform="translate(-2.55)"/><path class="cls-5" d="M831.72,308.4c-.55.1-1.13.23-1.72.39s-1.07.29-1.66.49-1.15.4-1.69.63l1.8,1,.59-.21c.22-.07.44-.14.66-.23,1-.36,2-.66,2.89-.9a15.18,15.18,0,0,1,2.55-.49,7.78,7.78,0,0,1,2.27.06,6.3,6.3,0,0,1,2.08.76,3.29,3.29,0,0,1,1.5,1.46,2,2,0,0,1,0,1.57,4.62,4.62,0,0,1-1.13,1.58A12.5,12.5,0,0,1,838,316l2.42,1.4-2,1.16-2.46-1.42a34.64,34.64,0,0,1-4,1.68,31.14,31.14,0,0,1-4.13,1.16l-1.31-3.19c.68-.14,1.38-.29,2.1-.48s1.29-.34,2-.58a18.49,18.49,0,0,0,2.13-.83l-1.76-1c-.63.24-1.28.46-1.94.68q-1.51.5-2.73.78a13.44,13.44,0,0,1-2.25.33,7.11,7.11,0,0,1-1.89-.15,5.83,5.83,0,0,1-1.65-.64,3.55,3.55,0,0,1-1.46-1.37,2.17,2.17,0,0,1-.19-1.54,3.69,3.69,0,0,1,.86-1.61,9.17,9.17,0,0,1,1.77-1.55l-2-1.17,2-1.16,2,1.18c.61-.29,1.23-.55,1.85-.79s1.25-.46,1.87-.65,1.22-.37,1.79-.53l1.59-.42ZM825,311.61a1.23,1.23,0,0,0,.74.14,5.54,5.54,0,0,0,1.1-.24l-1.52-.87C824.68,311.06,824.57,311.39,825,311.61Zm9.62,1.61a1.26,1.26,0,0,0-.79-.11,6.19,6.19,0,0,0-1.17.25l1.48.85a1.66,1.66,0,0,0,.65-.61C834.81,313.45,834.76,313.32,834.58,313.22Z" transform="translate(-2.55)"/><path class="cls-4" d="M831.72,307.65c-.55.1-1.13.24-1.72.4s-1.07.29-1.66.48a16.9,16.9,0,0,0-1.69.64l1.8,1L829,310a5.75,5.75,0,0,0,.66-.23c1-.35,2-.66,2.89-.9a16.26,16.26,0,0,1,2.55-.49,8.54,8.54,0,0,1,2.27.06,6.33,6.33,0,0,1,2.08.77,3.24,3.24,0,0,1,1.5,1.46,2,2,0,0,1,0,1.57,4.59,4.59,0,0,1-1.13,1.57,11.9,11.9,0,0,1-1.91,1.48l2.42,1.4-2,1.17-2.46-1.43a34.58,34.58,0,0,1-8.12,2.84l-1.31-3.19q1-.19,2.1-.48c.61-.15,1.29-.34,2-.58a18.47,18.47,0,0,0,2.13-.82l-1.76-1c-.63.24-1.28.47-1.94.68q-1.51.5-2.73.78a12.48,12.48,0,0,1-2.25.33,7.11,7.11,0,0,1-1.89-.15,5.83,5.83,0,0,1-1.65-.64,3.55,3.55,0,0,1-1.46-1.37,2.15,2.15,0,0,1-.19-1.53,3.64,3.64,0,0,1,.86-1.61,9.2,9.2,0,0,1,1.77-1.56l-2-1.16,2-1.17,2,1.18c.61-.29,1.23-.55,1.85-.79s1.25-.45,1.87-.65,1.22-.37,1.79-.52l1.59-.42ZM825,310.86a1.23,1.23,0,0,0,.74.14,5.41,5.41,0,0,0,1.1-.23l-1.52-.88C824.68,310.31,824.57,310.64,825,310.86Zm9.62,1.61a1.26,1.26,0,0,0-.79-.11,7.08,7.08,0,0,0-1.17.25l1.48.86a1.73,1.73,0,0,0,.65-.61A.29.29,0,0,0,834.58,312.47Z" transform="translate(-2.55)"/><path class="cls-4" d="M830,317.74c-16.56,0-30-7.82-30-17.46v8.34h0c0,.08,0,.16,0,.24,0,9.64,13.43,17.46,30,17.46s30-7.82,30-17.46c0-.08,0-.16,0-.24h0v-8.34C860,309.92,846.53,317.74,830,317.74Z" transform="translate(-2.55)"/><path class="cls-5" d="M830,282.81c-16.49,0-29.87,7.76-30,17.35,0,0,0,.08,0,.12,0,9.64,13.43,17.46,30,17.46s30-7.82,30-17.46v-.12C859.84,290.57,846.46,282.81,830,282.81Z" transform="translate(-2.55)"/><ellipse class="cls-6" cx="827.42" cy="300.28" rx="22.42" ry="13.05"/><path class="cls-4" d="M830,288.62c12,0,21.73,5.48,22.36,12.36,0-.24.06-.47.06-.7,0-7.21-10-13.06-22.42-13.06s-22.42,5.85-22.42,13.06a5.72,5.72,0,0,0,.07.7C808.24,294.1,818,288.62,830,288.62Z" transform="translate(-2.55)"/><path class="cls-5" d="M831.7,296.18c-.55.1-1.13.23-1.73.39s-1.07.29-1.65.49a16,16,0,0,0-1.69.64l1.8,1a5.66,5.66,0,0,1,.59-.22l.66-.23c1-.36,2-.66,2.89-.9a15.18,15.18,0,0,1,2.55-.49,8.55,8.55,0,0,1,2.27.06,6.3,6.3,0,0,1,2.08.76,3.31,3.31,0,0,1,1.49,1.46,2.08,2.08,0,0,1,0,1.57,4.62,4.62,0,0,1-1.13,1.58,12.5,12.5,0,0,1-1.91,1.48l2.42,1.4-2,1.16L835.88,305a34.45,34.45,0,0,1-8.13,2.84l-1.3-3.19q1-.19,2.1-.48c.61-.15,1.28-.34,2-.58a18.31,18.31,0,0,0,2.12-.82l-1.76-1c-.62.24-1.27.46-1.94.68q-1.5.5-2.73.78a12.48,12.48,0,0,1-2.25.33,7.18,7.18,0,0,1-1.89-.15,5.88,5.88,0,0,1-1.64-.64,3.55,3.55,0,0,1-1.46-1.37,2.23,2.23,0,0,1-.2-1.54,3.89,3.89,0,0,1,.87-1.61,8.81,8.81,0,0,1,1.76-1.55l-2-1.16,2-1.17,2,1.18c.61-.29,1.22-.55,1.85-.79s1.25-.46,1.87-.65,1.21-.37,1.79-.52l1.58-.42Zm-6.77,3.21a1.25,1.25,0,0,0,.74.14,4.86,4.86,0,0,0,1.11-.24l-1.52-.87C824.65,298.84,824.55,299.17,824.93,299.39Zm9.63,1.61a1.27,1.27,0,0,0-.79-.11,6.44,6.44,0,0,0-1.18.25l1.48.85a1.63,1.63,0,0,0,.66-.61C834.79,301.23,834.73,301.1,834.56,301Z" transform="translate(-2.55)"/><path class="cls-4" d="M831.7,295.43c-.55.1-1.13.24-1.73.4s-1.07.29-1.65.48-1.16.41-1.69.64l1.8,1,.59-.21.66-.23c1-.36,2-.67,2.89-.91a16.26,16.26,0,0,1,2.55-.49,8.55,8.55,0,0,1,2.27.06,6.33,6.33,0,0,1,2.08.77,3.22,3.22,0,0,1,1.49,1.46,2.08,2.08,0,0,1,0,1.57,4.59,4.59,0,0,1-1.13,1.57,12.53,12.53,0,0,1-1.91,1.49l2.42,1.39-2,1.17-2.46-1.42a34.45,34.45,0,0,1-8.13,2.84l-1.3-3.2c.68-.13,1.38-.29,2.1-.47s1.28-.35,2-.59a18.31,18.31,0,0,0,2.12-.82l-1.76-1c-.62.24-1.27.47-1.94.68a25.68,25.68,0,0,1-2.73.78,12.48,12.48,0,0,1-2.25.33,7.18,7.18,0,0,1-1.89-.15,5.59,5.59,0,0,1-1.64-.64,3.55,3.55,0,0,1-1.46-1.37,2.2,2.2,0,0,1-.2-1.53,3.77,3.77,0,0,1,.87-1.61,8.5,8.5,0,0,1,1.76-1.55l-2-1.17,2-1.16,2,1.17c.61-.28,1.22-.55,1.85-.79s1.25-.45,1.87-.65,1.21-.37,1.79-.52l1.58-.42Zm-6.77,3.21a1.18,1.18,0,0,0,.74.14,5.36,5.36,0,0,0,1.11-.23l-1.52-.88C824.65,298.1,824.55,298.42,824.93,298.64Zm9.63,1.61a1.34,1.34,0,0,0-.79-.11,7.4,7.4,0,0,0-1.18.25l1.48.86a1.7,1.7,0,0,0,.66-.61A.3.3,0,0,0,834.56,300.25Z" transform="translate(-2.55)"/><path class="cls-4" d="M830.17,305.56c-16.56,0-30-7.82-30-17.47v8.34h0a2,2,0,0,0,0,.25c0,9.64,13.42,17.46,30,17.46s30-7.82,30-17.46c0-.09,0-.17,0-.25h0v-8.34C860.16,297.74,846.74,305.56,830.17,305.56Z" transform="translate(-2.55)"/><path class="cls-5" d="M830.17,270.63c-16.49,0-29.87,7.75-30,17.34v.12c0,9.65,13.42,17.47,30,17.47s30-7.82,30-17.47V288C860.05,278.38,846.67,270.63,830.17,270.63Z" transform="translate(-2.55)"/><ellipse class="cls-6" cx="827.62" cy="288.09" rx="22.42" ry="13.05"/><path class="cls-4" d="M830.17,276.44c12,0,21.73,5.47,22.36,12.35,0-.23.06-.46.06-.7,0-7.21-10-13-22.42-13s-22.41,5.84-22.41,13c0,.24,0,.47.06.7C808.45,281.91,818.2,276.44,830.17,276.44Z" transform="translate(-2.55)"/><path class="cls-5" d="M831.9,284c-.55.11-1.13.24-1.72.4s-1.07.29-1.66.48-1.15.41-1.69.64l1.8,1,.59-.21.66-.23c1-.36,2-.66,2.89-.9a15.18,15.18,0,0,1,2.55-.49,7.78,7.78,0,0,1,2.27.06,6.3,6.3,0,0,1,2.08.76,3.29,3.29,0,0,1,1.5,1.46,2,2,0,0,1,0,1.57,4.62,4.62,0,0,1-1.13,1.58,12.5,12.5,0,0,1-1.91,1.48l2.42,1.4-2,1.16-2.46-1.42a34.64,34.64,0,0,1-4,1.68,32.74,32.74,0,0,1-4.13,1.16l-1.31-3.2c.68-.13,1.38-.28,2.1-.47s1.29-.35,2-.58a18.49,18.49,0,0,0,2.13-.83l-1.76-1c-.63.24-1.28.46-1.94.68q-1.51.49-2.73.78a14.57,14.57,0,0,1-2.25.33,7.11,7.11,0,0,1-1.89-.15,5.57,5.57,0,0,1-1.65-.65,3.53,3.53,0,0,1-1.46-1.36,2.23,2.23,0,0,1-.2-1.54,3.83,3.83,0,0,1,.87-1.61,8.58,8.58,0,0,1,1.77-1.55l-2-1.17,2-1.16,2,1.18c.61-.29,1.23-.55,1.85-.79s1.25-.46,1.87-.65,1.22-.37,1.79-.53l1.59-.42Zm-6.76,3.22a1.31,1.31,0,0,0,.74.14,5.54,5.54,0,0,0,1.1-.24l-1.52-.88C824.86,286.66,824.75,287,825.14,287.21Zm9.62,1.6a1.34,1.34,0,0,0-.79-.1,5.49,5.49,0,0,0-1.17.25l1.48.85a1.73,1.73,0,0,0,.65-.61A.29.29,0,0,0,834.76,288.81Z" transform="translate(-2.55)"/><path class="cls-4" d="M831.9,283.25c-.55.1-1.13.23-1.72.39s-1.07.29-1.66.49a16.9,16.9,0,0,0-1.69.64l1.8,1c.18-.08.38-.15.59-.22l.66-.23c1-.36,2-.66,2.89-.9a15.18,15.18,0,0,1,2.55-.49,8.54,8.54,0,0,1,2.27.06,6.3,6.3,0,0,1,2.08.76,3.34,3.34,0,0,1,1.5,1.46,2,2,0,0,1,0,1.57A4.62,4.62,0,0,1,840,289.4a12.5,12.5,0,0,1-1.91,1.48l2.42,1.4-2,1.16L836.08,292a34.58,34.58,0,0,1-8.12,2.84l-1.31-3.19q1-.19,2.1-.48c.61-.15,1.29-.34,2-.58a18.47,18.47,0,0,0,2.13-.82l-1.76-1c-.63.24-1.28.47-1.94.68q-1.51.49-2.73.78a12.48,12.48,0,0,1-2.25.33,7.11,7.11,0,0,1-1.89-.15,5.83,5.83,0,0,1-1.65-.64,3.55,3.55,0,0,1-1.46-1.37,2.22,2.22,0,0,1-.2-1.54,3.8,3.8,0,0,1,.87-1.6,8.6,8.6,0,0,1,1.77-1.56l-2-1.16,2-1.17,2,1.18c.61-.29,1.23-.55,1.85-.79s1.25-.46,1.87-.65,1.22-.37,1.79-.52l1.59-.42Zm-6.76,3.21a1.23,1.23,0,0,0,.74.14,5.41,5.41,0,0,0,1.1-.23l-1.52-.88C824.86,285.91,824.75,286.24,825.14,286.46Zm9.62,1.61A1.26,1.26,0,0,0,834,288a6.19,6.19,0,0,0-1.17.25l1.48.86a1.82,1.82,0,0,0,.65-.61A.29.29,0,0,0,834.76,288.07Z" transform="translate(-2.55)"/><polygon class="cls-8" points="1042.44 444.74 983.22 408.96 983.22 240.29 1042.44 276.07 1042.44 444.74"/><polygon class="cls-9" points="1031.87 422.94 993.78 399.93 993.78 262.58 1031.87 285.59 1031.87 422.94"/><polygon class="cls-10" points="1153.45 153.63 1153.45 177.15 1128.67 192.31 1022.88 257.53 1006.58 249.57 998.24 240.29 1153.45 153.63"/><polygon class="cls-11" points="1004.95 248.41 1042.66 271.19 1185.71 190.8 1143.85 169.18 1004.95 248.41"/><polygon class="cls-9" points="1042.44 444.74 1204.96 353.39 1204.96 184.72 1042.44 276.07 1042.44 444.74"/><polygon class="cls-12" points="1131.87 381.84 1190.38 348.95 1190.38 332.51 1131.87 365.4 1131.87 381.84"/><polygon class="cls-12" points="1131.87 357.18 1190.38 324.29 1190.38 317.14 1131.87 350.03 1131.87 357.18"/><polygon class="cls-13" points="1194.03 178.15 1042.66 263.23 1004.95 240.45 1153.45 153.63 1142.63 147.09 983.22 240.29 1042.45 276.08 1204.96 184.75 1194.03 178.15"/><polygon class="cls-14" points="1123.7 490.55 1064.47 454.77 1064.47 205.56 1123.7 241.34 1123.7 490.55"/><polygon class="cls-12" points="1116.26 416.6 1071.91 389.8 1071.91 373.68 1116.26 400.47 1116.26 416.6"/><polygon class="cls-15" points="1116.26 443.21 1071.91 416.42 1071.91 400.29 1116.26 427.09 1116.26 443.21"/><polygon class="cls-16" points="1234.71 118.91 1234.71 142.42 1209.92 157.58 1104.14 222.8 1087.84 214.84 1079.49 205.56 1234.71 118.91"/><polygon class="cls-11" points="1086.21 213.68 1123.92 236.47 1266.96 156.07 1225.11 134.45 1086.21 213.68"/><polygon class="cls-17" points="1197.81 403.45 1302.7 344.49 1302.7 195.55 1197.81 254.51 1197.81 403.45"/><polygon class="cls-18" points="1240.22 413.57 1319.13 369.22 1319.13 257.17 1240.22 301.52 1240.22 413.57"/><polygon class="cls-15" points="1123.7 490.55 1286.21 399.2 1286.21 149.99 1123.7 241.34 1123.7 490.55"/><polygon class="cls-19" points="1123.7 409.32 1286.21 317.97 1286.21 149.99 1123.7 241.34 1123.7 409.32"/><polygon class="cls-20" points="1275.29 143.43 1123.92 228.5 1086.21 205.72 1234.71 118.91 1223.89 112.37 1064.47 205.56 1123.71 241.36 1286.21 150.03 1275.29 143.43"/><path class="cls-18" d="M1099.33,288.52V508.9l179.85,108.33ZM1127,404.38l74.15,135.53L1127,495.25Z" transform="translate(-2.55)"/><polygon class="cls-18" points="1096.78 290.53 1096.78 306.95 1261.8 608.3 1275.2 616.37 1096.78 290.53"/><polygon class="cls-21" points="1096.78 278.12 1096.78 304.94 1263.23 609.16 1283.97 621.65 1096.78 278.12"/><polygon class="cls-22" points="710.28 761.77 674.86 782.69 619.76 668.25 619.76 649.91 655.18 647.33 710.28 743.43 710.28 761.77"/><polygon class="cls-22" points="674.86 764.35 674.86 782.69 710.28 761.77 710.28 743.43 674.86 764.35"/><path class="cls-22" d="M616.72,701.36c13.87,8,14.35,20.77,1.07,28.61s-35.3,7.75-49.16-.2-14.35-20.77-1.07-28.62S602.86,693.4,616.72,701.36Z" transform="translate(-2.55)"/><polygon class="cls-22" points="624.89 697.88 555.36 696.67 555.36 715.01 600.26 727.68 624.89 717.11 624.89 697.88"/><ellipse class="cls-22" cx="743.26" cy="716.07" rx="20.22" ry="34.78" transform="translate(6.11 1441.02) rotate(-88.55)"/><polygon class="cls-22" points="705.93 697.74 775.48 697.74 775.48 716.38 705.93 715.01 705.93 697.74"/><polygon class="cls-23" points="710.28 743.43 674.86 764.35 619.76 649.91 655.18 628.99 710.28 743.43"/><ellipse class="cls-23" cx="592.67" cy="697.23" rx="20.22" ry="34.78" transform="translate(-121.85 1272.11) rotate(-88.55)"/><path class="cls-23" d="M767.31,683.53c13.87,8,14.35,20.77,1.06,28.61s-35.29,7.76-49.16-.2-14.34-20.77-1.06-28.61S753.44,675.57,767.31,683.53Z" transform="translate(-2.55)"/><polygon class="cls-24" points="904.4 797.36 845.76 831.45 778.52 794.19 733.85 801.58 733.85 820.16 801.09 857.42 742.45 872.92 742.45 891.5 793.68 919.89 852.32 885.8 919.56 923.05 964.23 897.09 964.23 878.5 897 859.83 955.63 825.74 955.63 807.16 904.4 797.36"/><polygon class="cls-25" points="904.4 778.78 845.76 812.87 778.52 775.61 733.85 801.58 801.09 838.84 742.45 872.92 793.68 901.31 852.32 867.22 919.56 904.48 964.23 878.5 897 841.25 955.63 807.16 904.4 778.78"/><polygon class="cls-26" points="793.68 901.31 793.68 919.89 742.45 891.5 742.45 872.92 793.68 901.31"/><polygon class="cls-26" points="964.23 878.5 919.56 904.48 919.56 923.05 964.23 897.09 964.23 878.5"/><polygon class="cls-27" points="704.26 846.51 687.2 892.32 632.71 902.34 611.22 926.89 619.72 937.24 674.21 927.22 648.65 962.68 657.15 973.03 698.66 965.4 715.72 919.59 770.21 909.57 783.21 874.67 774.7 864.32 728.72 884.68 745.77 838.88 737.27 828.53 704.26 846.51"/><polygon class="cls-28" points="695.76 836.16 678.7 881.97 624.21 891.99 611.22 926.89 665.7 916.87 648.65 962.68 690.16 955.05 707.22 909.24 761.71 899.22 774.7 864.32 720.22 874.34 737.27 828.53 695.76 836.16"/><polygon class="cls-29" points="690.16 955.05 698.66 965.4 657.15 973.03 648.65 962.68 690.16 955.05"/><polygon class="cls-29" points="774.7 864.32 761.71 899.22 770.21 909.57 783.21 874.67 774.7 864.32"/><polygon class="cls-30" points="1034.34 832.26 591.7 576.11 847.39 428.54 1290.03 684.69 1034.34 832.26"/><polygon class="cls-7" points="1034.34 808.7 591.7 552.55 847.39 404.98 1290.03 661.12 1034.34 808.7"/><polygon class="cls-31" points="1290.03 661.12 1290.03 684.69 1034.31 832.29 1034.31 808.72 1290.03 661.12"/><polygon class="cls-32" points="591.67 552.58 591.67 576.14 1034.31 832.29 1034.31 808.72 591.67 552.58"/><polygon class="cls-7" points="967.18 474.3 847.39 404.98 591.67 552.57 711.47 621.9 967.18 474.3"/><polygon class="cls-33" points="933.4 470.82 849.71 422.38 625.45 552.18 709.15 600.62 933.4 470.82"/><polygon class="cls-34" points="922.14 471.18 849.29 429.03 638.18 551.83 711.02 593.99 922.14 471.18"/><polygon class="cls-35" points="711.18 509.46 665.8 535.8 811.28 535.8 856.65 509.46 711.18 509.46"/><polygon class="cls-35" points="736.22 494.93 881.69 494.93 922.14 471.18 874.66 443.71 826.97 442.26 736.22 494.93"/><text class="cls-36" transform="matrix(0.84, -0.49, 0.86, 0.51, 851.29, 498.88)">0.</text><polygon class="cls-35" points="743.22 575.3 765.9 562.13 655.98 562.13 678.73 575.3 743.22 575.3"/><polygon class="cls-37" points="835.57 622.62 793.57 647.22 748.58 621.24 748.58 613.93 790.58 596.65 835.57 615.31 835.57 622.62"/><polygon class="cls-38" points="835.57 615.31 793.57 639.9 748.58 613.93 790.58 589.33 835.57 615.31"/><polygon class="cls-39" points="827.66 615.18 793.3 635.3 756.49 614.05 790.85 593.93 827.66 615.18"/><polygon class="cls-37" points="891.32 590.02 849.32 614.62 804.32 588.64 804.32 581.33 846.33 564.05 891.32 582.71 891.32 590.02"/><polygon class="cls-38" points="891.32 582.71 849.32 607.3 804.32 581.33 846.33 556.73 891.32 582.71"/><polygon class="cls-39" points="883.4 582.58 849.04 602.7 812.24 581.45 846.6 561.33 883.4 582.58"/><polygon class="cls-40" points="947.07 557.42 905.07 582.01 860.07 556.04 860.07 548.72 902.08 531.45 947.07 550.1 947.07 557.42"/><polygon class="cls-41" points="947.07 550.1 905.07 574.7 860.07 548.72 902.08 524.13 947.07 550.1"/><polygon class="cls-42" points="939.15 549.98 904.79 570.1 867.99 548.85 902.35 528.73 939.15 549.98"/><polygon class="cls-40" points="1002.82 524.82 960.81 549.41 915.82 523.44 915.82 516.12 957.83 498.85 1002.82 517.5 1002.82 524.82"/><polygon class="cls-41" points="1002.82 517.5 960.81 542.1 915.82 516.12 957.83 491.53 1002.82 517.5"/><polygon class="cls-42" points="994.9 517.38 960.54 537.5 923.74 516.25 958.1 496.13 994.9 517.38"/><polygon class="cls-43" points="894.66 657 852.65 681.6 807.66 655.62 807.66 648.31 849.67 631.03 894.66 649.69 894.66 657"/><polygon class="cls-44" points="894.66 649.69 852.65 674.28 807.66 648.31 849.67 623.71 894.66 649.69"/><polygon class="cls-45" points="886.74 649.56 852.38 669.68 815.58 648.43 849.94 628.32 886.74 649.56"/><polygon class="cls-43" points="950.41 624.4 908.4 649 863.41 623.02 863.41 615.71 905.41 598.43 950.41 617.09 950.41 624.4"/><polygon class="cls-44" points="950.41 617.09 908.4 641.68 863.41 615.71 905.41 591.11 950.41 617.09"/><polygon class="cls-45" points="942.49 616.96 908.13 637.08 871.33 615.83 905.69 595.71 942.49 616.96"/><polygon class="cls-43" points="1006.16 591.8 964.15 616.4 919.16 590.42 919.16 583.1 961.16 565.83 1006.16 584.49 1006.16 591.8"/><polygon class="cls-44" points="1006.16 584.49 964.15 609.08 919.16 583.1 961.16 558.51 1006.16 584.49"/><polygon class="cls-45" points="998.24 584.36 963.88 604.48 927.07 583.23 961.43 563.11 998.24 584.36"/><polygon class="cls-40" points="1061.9 559.2 1019.9 583.79 974.91 557.82 974.91 550.5 1016.91 533.23 1061.9 551.88 1061.9 559.2"/><polygon class="cls-41" points="1061.9 551.88 1019.9 576.48 974.91 550.5 1016.91 525.91 1061.9 551.88"/><polygon class="cls-42" points="1053.99 551.76 1019.63 571.88 982.82 550.63 1017.18 530.51 1053.99 551.76"/><polygon class="cls-43" points="953.75 691.38 911.74 715.98 866.75 690 866.75 682.69 908.75 665.41 953.75 684.07 953.75 691.38"/><polygon class="cls-44" points="953.75 684.07 911.74 708.66 866.75 682.69 908.75 658.09 953.75 684.07"/><polygon class="cls-45" points="945.83 683.94 911.47 704.06 874.66 682.81 909.02 662.7 945.83 683.94"/><polygon class="cls-43" points="1009.49 658.78 967.49 683.38 922.5 657.4 922.5 650.09 964.5 632.81 1009.49 651.47 1009.49 658.78"/><polygon class="cls-44" points="1009.49 651.47 967.49 676.06 922.5 650.09 964.5 625.49 1009.49 651.47"/><polygon class="cls-45" points="1001.58 651.34 967.22 671.46 930.41 650.21 964.77 630.09 1001.58 651.34"/><polygon class="cls-43" points="1065.24 626.18 1023.24 650.78 978.24 624.8 978.24 617.49 1020.25 600.21 1065.24 618.87 1065.24 626.18"/><polygon class="cls-44" points="1065.24 618.87 1023.24 643.46 978.24 617.49 1020.25 592.89 1065.24 618.87"/><polygon class="cls-45" points="1057.33 618.74 1022.97 638.86 986.16 617.61 1020.52 597.49 1057.33 618.74"/><polygon class="cls-40" points="1120.99 593.58 1078.98 618.17 1033.99 592.2 1033.99 584.88 1076 567.61 1120.99 586.26 1120.99 593.58"/><polygon class="cls-41" points="1120.99 586.26 1078.98 610.86 1033.99 584.88 1076 560.29 1120.99 586.26"/><polygon class="cls-42" points="1113.07 586.14 1078.71 606.26 1041.91 585.01 1076.27 564.89 1113.07 586.14"/><polygon class="cls-43" points="1012.83 725.77 970.83 750.36 925.83 724.38 925.83 717.07 967.84 699.79 1012.83 718.45 1012.83 725.77"/><polygon class="cls-44" points="1012.83 718.45 970.83 743.04 925.83 717.07 967.84 692.47 1012.83 718.45"/><polygon class="cls-45" points="1004.91 718.32 970.55 738.44 933.75 717.19 968.11 697.08 1004.91 718.32"/><polygon class="cls-43" points="1068.58 693.16 1026.58 717.76 981.58 691.78 981.58 684.47 1023.59 667.19 1068.58 685.85 1068.58 693.16"/><polygon class="cls-44" points="1068.58 685.85 1026.58 710.44 981.58 684.47 1023.59 659.87 1068.58 685.85"/><polygon class="cls-45" points="1060.66 685.72 1026.3 705.84 989.5 684.59 1023.86 664.48 1060.66 685.72"/><polygon class="cls-43" points="1124.33 660.56 1082.32 685.16 1037.33 659.18 1037.33 651.87 1079.33 634.59 1124.33 653.25 1124.33 660.56"/><polygon class="cls-44" points="1124.33 653.25 1082.32 677.84 1037.33 651.87 1079.33 627.27 1124.33 653.25"/><polygon class="cls-45" points="1116.41 653.12 1082.05 673.24 1045.25 651.99 1079.61 631.87 1116.41 653.12"/><polygon class="cls-46" points="1239.28 662.11 1197.28 686.71 1092.8 626.58 1092.8 619.26 1134.81 601.99 1239.28 654.79 1239.28 662.11"/><polygon class="cls-47" points="1239.56 654.79 1197.55 679.39 1093.08 619.26 1135.08 594.67 1239.56 654.79"/><polygon class="cls-47" points="1231.09 654.02 1196.73 674.14 1100.99 619.39 1135.35 599.27 1231.09 654.02"/><polygon class="cls-43" points="1071.92 760.15 1029.91 784.74 984.92 758.77 984.92 751.45 1026.92 734.17 1071.92 752.83 1071.92 760.15"/><polygon class="cls-44" points="1071.92 752.83 1029.91 777.42 984.92 751.45 1026.92 726.86 1071.92 752.83"/><polygon class="cls-45" points="1064 752.7 1029.64 772.82 992.84 751.57 1027.2 731.46 1064 752.7"/><polygon class="cls-43" points="1127.66 727.54 1085.66 752.14 1040.67 726.16 1040.67 718.85 1082.67 701.57 1127.66 720.23 1127.66 727.54"/><polygon class="cls-44" points="1127.66 720.23 1085.66 744.82 1040.67 718.85 1082.67 694.25 1127.66 720.23"/><polygon class="cls-45" points="1119.75 720.1 1085.39 740.22 1048.58 718.97 1082.94 698.86 1119.75 720.1"/><polygon class="cls-43" points="1183.41 694.94 1141.41 719.54 1096.41 693.56 1096.41 686.25 1138.42 668.97 1183.41 687.63 1183.41 694.94"/><polygon class="cls-44" points="1183.41 687.63 1141.41 712.22 1096.41 686.25 1138.42 661.65 1183.41 687.63"/><polygon class="cls-45" points="1175.5 687.5 1141.14 707.62 1104.33 686.37 1138.69 666.25 1175.5 687.5"/><text class="cls-48" transform="matrix(0.84, -0.49, 0.86, 0.51, 785.82, 627.31)"><tspan class="cls-49">A</tspan><tspan x="15.9" y="0">C</tspan></text><text class="cls-50" transform="matrix(0.84, -0.49, 0.86, 0.51, 847.96, 592.29)">C</text><text class="cls-51" transform="matrix(0.84, -0.49, 0.86, 0.51, 961.32, 523.83)">X</text><text class="cls-52" transform="matrix(0.84, -0.49, 0.86, 0.51, 1166.15, 644.43)">+</text><text class="cls-52" transform="matrix(0.84, -0.49, 0.86, 0.51, 1068.69, 591.19)">_</text><path class="cls-53" d="M1031.37,547.2l-14.92,8.64-3.77-2.23,14.91-8.63Z" transform="translate(-2.55)"/><path class="cls-53" d="M1018.6,544.58c1.4.8,1.45,2.09.11,2.88a5.44,5.44,0,0,1-5,0c-1.4-.8-1.45-2.09-.11-2.88A5.38,5.38,0,0,1,1018.6,544.58Z" transform="translate(-2.55)"/><path class="cls-53" d="M1032.56,552.72c1.39.8,1.44,2.09.1,2.88a5.41,5.41,0,0,1-5,0c-1.4-.8-1.45-2.09-.11-2.88A5.46,5.46,0,0,1,1032.56,552.72Z" transform="translate(-2.55)"/><text class="cls-54" transform="matrix(0.84, -0.49, 0.86, 0.51, 898, 556.49)">+<tspan x="-1.13" y="7.56">_</tspan></text><text class="cls-52" transform="matrix(0.84, -0.49, 0.86, 0.51, 856.33, 659.95)">7</text><text class="cls-52" transform="matrix(0.84, -0.49, 0.86, 0.51, 911.58, 627.35)">8</text><text class="cls-54" transform="matrix(0.84, -0.49, 0.86, 0.51, 966.13, 594.56)">9</text><text class="cls-52" transform="matrix(0.84, -0.49, 0.86, 0.51, 911.58, 694.33)">4</text><text class="cls-52" transform="matrix(0.84, -0.49, 0.86, 0.51, 970.97, 661.21)">5</text><text class="cls-55" transform="matrix(0.84, -0.49, 0.86, 0.51, 1022.33, 629.08)">6</text><text class="cls-52" transform="matrix(0.84, -0.49, 0.86, 0.51, 978.36, 725.87)">1</text><text class="cls-52" transform="matrix(0.84, -0.49, 0.86, 0.51, 1028.53, 696.05)">2</text><text class="cls-54" transform="matrix(0.84, -0.49, 0.86, 0.51, 1084.34, 663.14)">3</text><text class="cls-52" transform="matrix(0.84, -0.49, 0.86, 0.51, 1031.46, 764.68)">0</text><text class="cls-52" transform="matrix(0.84, -0.49, 0.86, 0.51, 1084.28, 722.13)">.</text><text class="cls-54" transform="matrix(0.84, -0.49, 0.86, 0.51, 1136.53, 697.58)">=</text><path class="cls-2" d="M1920,240.17s-333.19,19.56-503.27-102.58S773.23,0,773.23,0H1920Z" transform="translate(-2.55)"/></svg>